<?xml version="1.0" encoding="UTF-8"?>
<svg xmlns="http://www.w3.org/2000/svg" viewBox="0 0 128 128" width="128" height="128">
<polygon points="85.977,91.558 62.895,73.807 36.442,85.977 54.193,62.895 42.023,36.442 65.105,54.193 91.558,42.023 73.807,65.105" fill="#f7c33a" opacity="0.8774351209636413"/>
<polygon points="76.087,79.157 63.392,69.394 48.843,76.087 58.606,63.392 51.913,48.843 64.608,58.606 79.157,51.913 69.394,64.608" fill="#fff0a0" opacity="0.9749279121818236"/>
<circle cx="53.56" cy="52.48" r="2.76" fill="#f7c33a" opacity="0.75"/>
<circle cx="79.93" cy="56.11" r="2.60" fill="#f7c33a" opacity="0.69"/>
<circle cx="79.34" cy="64.88" r="2.57" fill="#f7c33a" opacity="0.68"/>
<circle cx="38.01" cy="22.09" r="1.05" fill="#f7c33a" opacity="0.15"/>
<circle cx="55.08" cy="65.41" r="3.09" fill="#f7c33a" opacity="0.86"/>
<circle cx="42.09" cy="45.98" r="0.91" fill="#f7c33a" opacity="0.11"/>
<circle cx="61.28" cy="77.25" r="2.80" fill="#f7c33a" opacity="0.76"/>
<circle cx="86.58" cy="92.65" r="1.01" fill="#f7c33a" opacity="0.14"/>
<circle cx="45.57" cy="41.06" r="1.19" fill="#f7c33a" opacity="0.20"/>
</svg>
