<?xml version="1.0" encoding="UTF-8"?>
<svg xmlns="http://www.w3.org/2000/svg" viewBox="0 0 128 128" width="128" height="128">
<polygon points="66.824,80.014 61.389,67.730 47.986,66.824 60.270,61.389 61.176,47.986 66.611,60.270 80.014,61.176 67.730,66.611" fill="#f7c33a" opacity="0.307818128993102"/>
<polygon points="65.553,72.807 62.564,66.051 55.193,65.553 61.949,62.564 62.447,55.193 65.436,61.949 72.807,62.447 66.051,65.436" fill="#fff0a0" opacity="0.3420201433256689"/>
<circle cx="44.72" cy="41.33" r="1.94" fill="#f7c33a" opacity="0.46"/>
<circle cx="91.46" cy="49.22" r="1.77" fill="#f7c33a" opacity="0.40"/>
<circle cx="89.10" cy="64.14" r="1.74" fill="#f7c33a" opacity="0.40"/>
<circle cx="55.52" cy="51.33" r="2.82" fill="#f7c33a" opacity="0.77"/>
<circle cx="47.23" cy="64.41" r="2.26" fill="#f7c33a" opacity="0.58"/>
<circle cx="53.54" cy="57.18" r="2.69" fill="#f7c33a" opacity="0.72"/>
<circle cx="58.73" cy="88.35" r="1.97" fill="#f7c33a" opacity="0.48"/>
<circle cx="71.74" cy="74.87" r="2.79" fill="#f7c33a" opacity="0.76"/>
<circle cx="56.63" cy="56.58" r="2.97" fill="#f7c33a" opacity="0.82"/>
</svg>
