<?xml version="1.0" encoding="UTF-8"?>
<svg xmlns="http://www.w3.org/2000/svg" viewBox="0 0 128 128" width="128" height="128">
<polygon points="72.648,87.759 61.008,70.416 40.241,72.648 57.584,61.008 55.352,40.241 66.992,57.584 87.759,55.352 70.416,66.992" fill="#f7c33a" opacity="0.5785088487178855"/>
<polygon points="68.756,77.067 62.354,67.529 50.933,68.756 60.471,62.354 59.244,50.933 65.646,60.471 77.067,59.244 67.529,65.646" fill="#fff0a0" opacity="0.6427876096865395"/>
<circle cx="47.82" cy="45.23" r="2.22" fill="#f7c33a" opacity="0.56"/>
<circle cx="87.42" cy="51.63" r="2.06" fill="#f7c33a" opacity="0.50"/>
<circle cx="85.68" cy="64.40" r="2.03" fill="#f7c33a" opacity="0.50"/>
<circle cx="58.37" cy="56.09" r="3.11" fill="#f7c33a" opacity="0.87"/>
<circle cx="49.98" cy="64.76" r="2.55" fill="#f7c33a" opacity="0.68"/>
<circle cx="55.40" cy="59.00" r="2.98" fill="#f7c33a" opacity="0.82"/>
<circle cx="59.62" cy="84.47" r="2.26" fill="#f7c33a" opacity="0.58"/>
<circle cx="69.33" cy="71.97" r="3.08" fill="#f7c33a" opacity="0.86"/>
<circle cx="42.23" cy="36.37" r="0.66" fill="#f7c33a" opacity="0.02"/>
</svg>
