<?xml version="1.0" encoding="UTF-8"?>
<svg xmlns="http://www.w3.org/2000/svg" viewBox="0 0 128 128" width="128" height="128">
<polygon points="80.014,66.824 66.611,67.730 61.176,80.014 60.270,66.611 47.986,61.176 61.389,60.270 66.824,47.986 67.730,61.389" fill="#f7c33a" opacity="0.30781812899310185"/>
<polygon points="72.807,65.553 65.436,66.051 62.447,72.807 61.949,65.436 55.193,62.447 62.564,61.949 65.553,55.193 66.051,62.564" fill="#fff0a0" opacity="0.3420201433256687"/>
<circle cx="38.53" cy="33.53" r="1.36" fill="#f7c33a" opacity="0.26"/>
<circle cx="99.52" cy="44.39" r="1.19" fill="#f7c33a" opacity="0.20"/>
<circle cx="95.93" cy="63.62" r="1.16" fill="#f7c33a" opacity="0.20"/>
<circle cx="49.82" cy="41.81" r="2.24" fill="#f7c33a" opacity="0.57"/>
<circle cx="41.73" cy="63.72" r="1.68" fill="#f7c33a" opacity="0.38"/>
<circle cx="49.81" cy="53.53" r="2.11" fill="#f7c33a" opacity="0.52"/>
<circle cx="56.94" cy="96.11" r="1.40" fill="#f7c33a" opacity="0.28"/>
<circle cx="76.57" cy="80.66" r="2.21" fill="#f7c33a" opacity="0.56"/>
<circle cx="53.03" cy="51.53" r="2.39" fill="#f7c33a" opacity="0.62"/>
</svg>
