<?xml version="1.0" encoding="UTF-8"?>
<svg xmlns="http://www.w3.org/2000/svg" viewBox="0 0 128 128" width="128" height="128">
<polygon points="81.049,91.899 61.852,72.899 36.101,81.049 55.101,61.852 46.951,36.101 66.148,55.101 91.899,46.951 72.899,66.148" fill="#f7c33a" opacity="0.8008846279303217"/>
<polygon points="73.377,79.345 62.818,68.895 48.655,73.377 59.105,62.818 54.623,48.655 65.182,59.105 79.345,54.623 68.895,65.182" fill="#fff0a0" opacity="0.8898718088114685"/>
<circle cx="51.35" cy="49.69" r="2.55" fill="#f7c33a" opacity="0.68"/>
<circle cx="82.81" cy="54.39" r="2.39" fill="#f7c33a" opacity="0.62"/>
<circle cx="81.78" cy="64.70" r="2.36" fill="#f7c33a" opacity="0.61"/>
<circle cx="35.98" cy="18.69" r="0.84" fill="#f7c33a" opacity="0.08"/>
<circle cx="53.12" cy="65.16" r="2.88" fill="#f7c33a" opacity="0.79"/>
<circle cx="40.76" cy="44.68" r="0.71" fill="#f7c33a" opacity="0.04"/>
<circle cx="60.65" cy="80.03" r="2.59" fill="#f7c33a" opacity="0.69"/>
<circle cx="88.30" cy="94.72" r="0.81" fill="#f7c33a" opacity="0.07"/>
<circle cx="44.28" cy="39.26" r="0.99" fill="#f7c33a" opacity="0.13"/>
</svg>
