<?xml version="1.0" encoding="UTF-8"?>
<svg xmlns="http://www.w3.org/2000/svg" viewBox="0 0 128 192" width="128" height="192">
<g transform="translate(0 0) scale(1 1)">
<polygon points="52.000,150.000 62.000,150.000 62.000,178.000 52.000,178.000" fill="#4a3a30" stroke="#2a2018" stroke-width="0.8" stroke-linejoin="round"/>
<polygon points="66.000,150.000 76.000,150.000 76.000,178.000 66.000,178.000" fill="#4a3a30" stroke="#2a2018" stroke-width="0.8" stroke-linejoin="round"/>
<polygon points="49.000,150.000 79.000,150.000 76.000,108.000 52.000,108.000" fill="#d2d2d0" stroke="#8c8c8a" stroke-width="0.8" stroke-linejoin="round"/>
<polygon points="50.000,136.000 78.000,136.000 78.000,140.000 50.000,140.000" fill="#6b4a2a"/>
<polygon points="46.000,110.000 54.000,110.000 54.000,138.000 46.000,138.000" fill="#e4bc9c" stroke="#8c8c8a" stroke-width="0.8" stroke-linejoin="round"/>
<polygon points="74.000,110.000 82.000,110.000 82.000,138.000 74.000,138.000" fill="#e4bc9c" stroke="#8c8c8a" stroke-width="0.8" stroke-linejoin="round"/>
<circle cx="64" cy="92.0" r="15" fill="#e4bc9c" stroke="#8c8c8a" stroke-width="0.8"/>
<path d="M49,90 A15,15 0 0 1 79,90 L79,86 L49,86 Z" fill="#4a321e"/>
<path d="M49,88 A15,15 0 0 1 79,88 L76,90 L52,90 Z" fill="#4a321e"/>
<circle cx="59" cy="93.0" r="1.8" fill="#2a2018"/><circle cx="69" cy="93.0" r="1.8" fill="#2a2018"/>
<line x1="61.00" y1="100.00" x2="67.00" y2="100.00" stroke="#a06a5a" stroke-width="1.2" stroke-linecap="round"/>
</g>
</svg>
