<?xml version="1.0" encoding="UTF-8"?>
<svg xmlns="http://www.w3.org/2000/svg" viewBox="0 0 192 256" width="192" height="256">
<polygon points="64.000,224.000 96.000,240.000 96.000,212.000 64.000,196.000" fill="#a8a6a0" stroke="#72706a" stroke-width="0.5" stroke-linejoin="round"/>
<polygon points="96.000,240.000 128.000,224.000 128.000,196.000 96.000,212.000" fill="#82807a" stroke="#72706a" stroke-width="0.5" stroke-linejoin="round"/>
<polygon points="64.000,196.000 96.000,180.000 128.000,196.000 96.000,212.000" fill="#bab8b2" stroke="#72706a" stroke-width="0.5" stroke-linejoin="round"/>
<polygon points="87.000,196.000 105.000,196.000 107.000,136.000 85.000,136.000" fill="#a09e98" stroke="#72706a" stroke-width="0.6" stroke-linejoin="round"/>
<polygon points="87.000,136.000 105.000,136.000 108.000,126.000 84.000,126.000" fill="#a8a6a0" stroke="#72706a" stroke-width="0.6" stroke-linejoin="round"/>
<circle cx="96.00" cy="114.00" r="10" fill="#acaaa4" stroke="#72706a" stroke-width="0.6"/>
<line x1="89.00" y1="114.00" x2="103.00" y2="114.00" stroke="#72706a" stroke-width="1.2" stroke-linecap="round"/>
<polygon points="74.000,134.000 90.000,134.000 90.000,166.000 82.000,174.000 74.000,166.000" fill="#92908a" stroke="#72706a" stroke-width="0.6" stroke-linejoin="round"/>
<line x1="110.00" y1="188.00" x2="110.00" y2="124.00" stroke="#72706a" stroke-width="2.2" stroke-linecap="round"/>
<line x1="105.00" y1="134.00" x2="115.00" y2="134.00" stroke="#72706a" stroke-width="2.2" stroke-linecap="round"/>
</svg>
