<?xml version="1.0" encoding="UTF-8"?>
<svg xmlns="http://www.w3.org/2000/svg" viewBox="0 0 192 192" width="192" height="192">
<g transform="matrix(0.89445 -0.44723 0 -1 32.00 160.00)">
<polygon points="3.776,0.000 11.776,0.000 11.776,124.000 3.776,124.000" fill="#a09e98" stroke="#72706a" stroke-width="0.6" stroke-linejoin="round"/>
<polygon points="59.776,0.000 67.776,0.000 67.776,124.000 59.776,124.000" fill="#a09e98" stroke="#72706a" stroke-width="0.6" stroke-linejoin="round"/>
<polygon points="3.776,124.000 67.776,124.000 67.776,136.000 3.776,136.000" fill="#aaa8a2" stroke="#72706a" stroke-width="0.6" stroke-linejoin="round"/>
<polygon points="11.776,0.000 59.776,0.000 59.776,124.000 11.776,124.000" fill="#1a1614" opacity="0.6"/>
<line x1="14.78" y1="2.00" x2="14.78" y2="120.00" stroke="#3a3a3c" stroke-width="2.2" stroke-linecap="round"/>
<line x1="23.18" y1="2.00" x2="23.18" y2="120.00" stroke="#3a3a3c" stroke-width="2.2" stroke-linecap="round"/>
<line x1="31.58" y1="2.00" x2="31.58" y2="120.00" stroke="#3a3a3c" stroke-width="2.2" stroke-linecap="round"/>
<line x1="39.98" y1="2.00" x2="39.98" y2="120.00" stroke="#3a3a3c" stroke-width="2.2" stroke-linecap="round"/>
<line x1="48.38" y1="2.00" x2="48.38" y2="120.00" stroke="#3a3a3c" stroke-width="2.2" stroke-linecap="round"/>
<line x1="56.78" y1="2.00" x2="56.78" y2="120.00" stroke="#3a3a3c" stroke-width="2.2" stroke-linecap="round"/>
<line x1="11.78" y1="12.00" x2="59.78" y2="12.00" stroke="#262628" stroke-width="2.6" stroke-linecap="round"/>
<line x1="11.78" y1="58.00" x2="59.78" y2="58.00" stroke="#262628" stroke-width="2.6" stroke-linecap="round"/>
<line x1="11.78" y1="108.00" x2="59.78" y2="108.00" stroke="#262628" stroke-width="2.6" stroke-linecap="round"/>
</g>
</svg>
